<svg xmlns="http://www.w3.org/2000/svg" viewBox="0 0 1024 1024"><defs><style>.cls-1{fill:none;}.cls-2{stroke:#fc0;fill:#fc0;stroke-miterlimit:10;stroke-width:16px;}</style></defs><title>icon-inner</title><g id="Layer_2" data-name="Layer 2"><g id="Layer_1-2" data-name="Layer 1"><rect class="cls-1" width="1024" height="1024"/><path class="cls-2" d="M512.11,634.34a15.88,15.88,0,0,1-15.9-15.88c0-.19,0-.38,0-.56V511.72a15.89,15.89,0,1,1,31.78,0V617.9a15.89,15.89,0,0,1-15.89,15.89h0"/><path class="cls-2" d="M512.11,527.62a16.07,16.07,0,0,1-7.95-2.1L411.68,472.1a15.92,15.92,0,1,1,15.89-27.59l84.54,48.78,84.21-48.78A15.89,15.89,0,0,1,612.21,472l-92.15,53.42a15.84,15.84,0,0,1-7.95,2.1"/></g></g></svg>