<svg xmlns="http://www.w3.org/2000/svg" viewBox="0 0 1024 1024"><defs><style>.cls-1{fill:none;}.cls-2{stroke:#fc0;fill:#fc0;stroke-miterlimit:10;stroke-width:16px;}</style></defs><title>icon-outer</title><g id="Layer_2" data-name="Layer 2"><g id="Layer_1-2" data-name="Layer 1"><rect class="cls-1" width="1024" height="1024"/><path class="cls-2" d="M604.27,215.06a15.84,15.84,0,0,1-7.95-2.1l-84.21-48.78L427.57,213a15.92,15.92,0,1,1-15.89-27.59h0l92.59-53.08a15.76,15.76,0,0,1,15.9,0l92.15,53.3a15.89,15.89,0,0,1-7.94,29.69"/><path class="cls-2" d="M195.36,451.13a15.88,15.88,0,0,1-15.89-15.89h0V328.63a15.89,15.89,0,1,1,31.78-.05V435.24a15.88,15.88,0,0,1-15.89,15.89h0"/><path class="cls-2" d="M828.53,451.13a15.88,15.88,0,0,1-15.89-15.89h0V328.63a15.89,15.89,0,1,1,31.78,0V435.24a15.88,15.88,0,0,1-15.89,15.89h0"/><path class="cls-2" d="M828.64,710.71a15.88,15.88,0,0,1-15.89-15.56v-107a15.89,15.89,0,0,1,15.89-15.9h0a15.89,15.89,0,0,1,15.89,15.9h0v107a15.89,15.89,0,0,1-15.89,15.9h0Z"/><path class="cls-2" d="M195.36,710.71a15.88,15.88,0,0,1-15.89-15.56v-107a15.89,15.89,0,1,1,31.78-.05v107.1a15.89,15.89,0,0,1-15.89,15.9h0"/><path class="cls-2" d="M512.11,278a15.89,15.89,0,0,1-15.89-15.89h0V145.86a15.89,15.89,0,1,1,31.78,0V262.08A15.89,15.89,0,0,1,512.11,278h0"/><path class="cls-2" d="M512.11,893.81a15.88,15.88,0,0,1-15.89-15.89h0V771.42a15.89,15.89,0,1,1,31.78,0V878a15.89,15.89,0,0,1-15.89,15.78"/><path class="cls-2" d="M512.11,893.81a16,16,0,0,1-7.95-2.1l-92.7-53.08A15.92,15.92,0,1,1,427.35,811l84.87,49.11,83.66-48.45a15.89,15.89,0,0,1,15.89,26.93l-91.6,53.08a15.73,15.73,0,0,1-7.95,2.1"/><path class="cls-2" d="M736.26,397.94a15.89,15.89,0,0,1-7.94-29.69l92.26-53.31a15.92,15.92,0,1,1,15.9,27.59l-92.27,53.31a15.94,15.94,0,0,1-8,2.1"/><path class="cls-2" d="M828.53,344.52a15.84,15.84,0,0,1-7.95-2.1L728.21,289a15.92,15.92,0,0,1,15.89-27.6l92.38,53.42a15.89,15.89,0,0,1-8,29.69"/><path class="cls-2" d="M287.63,397.94a15.94,15.94,0,0,1-7.95-2.1L187.41,342a15.92,15.92,0,1,1,15.9-27.59l92.37,53.31a15.89,15.89,0,0,1-7.94,29.68"/><path class="cls-2" d="M195.36,344.52a15.89,15.89,0,0,1-8-29.69l92.27-53.2a15.92,15.92,0,0,1,15.89,27.6h0L203.31,342a16.07,16.07,0,0,1-7.95,2.1"/><path class="cls-2" d="M736.15,764a15.89,15.89,0,0,1-7.94-29.69L820.69,681a15.92,15.92,0,1,1,15.9,27.59l-92.49,53.3a15.84,15.84,0,0,1-8,2.1"/><path class="cls-2" d="M828.53,710.71a15.72,15.72,0,0,1-7.95-2.09l-92.37-53.31a15.92,15.92,0,1,1,15.89-27.59L836.48,681a15.89,15.89,0,0,1-8,29.68"/><path class="cls-2" d="M287.63,764.13a15.84,15.84,0,0,1-7.95-2.1L187.3,708.62A15.92,15.92,0,1,1,203.2,681l92.37,53.41a15.89,15.89,0,0,1-7.94,29.69"/><path class="cls-2" d="M195.36,710.71a15.89,15.89,0,0,1-8-29.68l92.16-53.42a15.92,15.92,0,0,1,15.89,27.59l-92.15,53.31a15.93,15.93,0,0,1-7.95,2.09"/></g></g></svg>